<svg width="70" height="71" viewBox="0 0 70 71" fill="none" xmlns="http://www.w3.org/2000/svg">
<rect y="0.653076" width="70" height="70" rx="6" fill="#785EEB"/>
<path d="M22.3278 34.2364H25.0833C26.6481 34.2364 27.9167 35.5049 27.9167 37.0697V38.4864C27.9167 40.0512 29.1852 41.3197 30.75 41.3197C32.3148 41.3197 33.5833 42.5883 33.5833 44.1531V48.3253M29.3333 24.2284V26.4447C29.3333 28.4008 30.919 29.9864 32.875 29.9864H33.5833C35.1481 29.9864 36.4167 31.2549 36.4167 32.8197C36.4167 34.3845 37.6852 35.6531 39.25 35.6531C40.8148 35.6531 42.0833 34.3845 42.0833 32.8197C42.0833 31.2549 43.3519 29.9864 44.9167 29.9864L46.4247 29.9864M39.25 47.6776V44.1531C39.25 42.5883 40.5185 41.3197 42.0833 41.3197H46.4247M47.75 35.6531C47.75 42.6947 42.0416 48.4031 35 48.4031C27.9584 48.4031 22.25 42.6947 22.25 35.6531C22.25 28.6114 27.9584 22.9031 35 22.9031C42.0416 22.9031 47.75 28.6114 47.75 35.6531Z" stroke="white" stroke-width="2" stroke-linecap="round" stroke-linejoin="round"/>
</svg>
